<?xml version="1.0" encoding="UTF-8" standalone="no"?>
<svg
   version="1.2"
   viewBox="0 0 48 48"
   width="48"
   height="48"
   id="svg138"
   sodipodi:docname="Eldorias_bg.svg"
   xml:space="preserve"
   inkscape:version="1.2.2 (732a01da63, 2022-12-09)"
   xmlns:inkscape="http://www.inkscape.org/namespaces/inkscape"
   xmlns:sodipodi="http://sodipodi.sourceforge.net/DTD/sodipodi-0.dtd"
   xmlns:xlink="http://www.w3.org/1999/xlink"
   xmlns="http://www.w3.org/2000/svg"
   xmlns:svg="http://www.w3.org/2000/svg"><defs
     id="defs142"><linearGradient
       inkscape:collect="always"
       id="linearGradient1730"><stop
         style="stop-color:#feef7c;stop-opacity:1;"
         offset="0"
         id="stop1726" /><stop
         style="stop-color:#feef7c;stop-opacity:1;"
         offset="1"
         id="stop1728" /></linearGradient><linearGradient
       inkscape:collect="always"
       xlink:href="#linearGradient1730"
       id="linearGradient10252"
       gradientUnits="userSpaceOnUse"
       x1="31.020424"
       y1="391.99994"
       x2="752.97943"
       y2="391.99994"
       gradientTransform="matrix(0.06683565,0,0,0.06683565,-2.1995724,-2.1995728)" /></defs><sodipodi:namedview
     id="namedview140"
     pagecolor="#ffffff"
     bordercolor="#000000"
     borderopacity="0.25"
     inkscape:showpageshadow="2"
     inkscape:pageopacity="0.0"
     inkscape:pagecheckerboard="0"
     inkscape:deskcolor="#d1d1d1"
     showgrid="false"
     inkscape:zoom="5.5919158"
     inkscape:cx="69.654124"
     inkscape:cy="17.257055"
     inkscape:window-width="1920"
     inkscape:window-height="991"
     inkscape:window-x="-9"
     inkscape:window-y="-9"
     inkscape:window-maximized="1"
     inkscape:current-layer="svg138" /><style
     id="style132">.a{fill:#fff}</style><rect
     style="fill:url(#linearGradient10252);fill-opacity:1;stroke:none;stroke-width:0.252606;paint-order:markers stroke fill"
     id="rect383-0"
     width="47.999992"
     height="47.999992"
     x="0"
     y="0"
     ry="7.1713147" /><path
     id="rect1842"
     style="fill:#c5a650;fill-opacity:0.785068;stroke:none;stroke-width:6.11386;stroke-dasharray:none;stroke-opacity:1;paint-order:markers stroke fill"
     d="m 32.732494,9.9444064 -0.4142,1.0512266 -7.649287,3.824775 -2.868581,7.553733 -0.573717,7.553734 0.382479,5.545793 -6.980018,3.633535 -6.2151935,2.677343 -1.759919,0.575281 8.3620285,5.640172 h 25.812527 c 3.972906,2e-6 7.171384,-3.198484 7.171387,-7.171387 V 20.24232 Z" /><path
     fill-rule="evenodd"
     d="m 73.701027,369.99125 q -0.08527,0 0.08527,0 -0.08527,0 -0.08527,0 0,0 0,0 z m 0.08527,0 c 0.255822,0 1.193837,0 2.302399,0 q 0,0 0,0 c 1.449658,0 3.581509,-0.34109 6.480826,-1.19383 q 0,0 0.08527,0 0,0 0.08527,0 c -0.596918,0.0853 4.860619,-1.70548 12.279459,-4.2637 8.527399,-2.98459 15.690419,-4.9459 23.109259,-5.03117 0.85274,0 1.44966,0.42637 2.21713,0.42637 q 1.6202,-1.70548 3.24041,-3.49624 1.44966,-1.53493 2.81404,-3.06986 4.9459,-1.79075 9.80651,-3.41096 1.62021,0.42637 3.32569,0.93801 -0.68219,-0.0853 -1.44966,-0.0853 0.25583,0 0.42637,0 0.0853,0 0.17055,0 c 1.10856,0.0853 2.21713,0.25582 3.24041,0.51164 0.85274,0.17055 1.70548,0.25583 2.47295,0.51165 2.04658,0.59692 4.00788,1.53493 5.79863,2.81404 q 5.03117,-5.37226 10.23289,-10.57398 1.44966,-1.53493 2.98459,-3.06986 4.69007,-1.44966 9.29487,-2.89932 1.79075,0.42637 3.58151,0.85274 1.44965,0.17055 2.81404,0.51164 c 0.85274,0.17055 1.70548,0.3411 2.47295,0.59692 2.13185,0.76747 4.2637,1.79076 6.05445,3.15514 2.21713,1.79076 3.83733,4.09315 4.51952,6.5661 2.13186,-1.53493 4.17843,-3.06986 6.48083,-4.2637 q 1.79076,-0.85274 3.49624,-1.70548 1.87602,-0.0853 3.75205,-0.25582 c 3.32569,-0.17055 6.39555,0.51164 9.38015,1.27911 q 2.55822,-2.38768 5.20171,-4.86062 4.43425,-1.10856 8.8685,-2.21713 1.53493,0.3411 3.15514,0.6822 0.34109,0 0.59692,0.0853 7.75993,-6.99247 15.77569,-13.72912 5.37226,-4.6048 10.91508,-9.12432 3.66678,2.72877 7.33356,5.45754 5.79864,-2.3024 11.76782,-4.6048 6.39555,-2.55822 12.96165,-4.94589 -0.3411,-1.10856 -0.68219,-2.21713 20.63631,-3.66678 41.69899,-6.05445 -0.0853,7.41884 -0.0853,14.92295 0.76747,-0.17055 1.62021,-0.34109 1.53493,-0.25583 2.72876,-0.42637 c 5.96919,-0.59692 11.68255,0.42637 16.20207,2.13185 4.86062,1.87603 9.12432,4.86062 11.51199,8.69795 q 1.02329,1.53493 1.9613,3.06986 0.51165,-0.76746 1.02329,-1.6202 -0.34109,-0.17055 -0.59692,-0.3411 c 0,0 -0.42637,-0.51164 -0.42637,-0.51164 q 0,0 -0.0853,0 0,-0.0853 -0.0853,-0.0853 -0.93802,-0.76747 -1.87603,-1.62021 c -0.85274,-0.85274 -1.70548,-1.87602 -2.3024,-2.98459 q 0,0 -0.0853,-0.0853 0,0 0,-0.0853 c -0.93802,-1.62021 -1.53494,-3.49624 -1.70548,-5.45754 -0.25583,-2.72877 0.59691,-5.79864 2.55822,-8.35686 q 0,0 0,0 0,0 0,-0.0853 c 3.49623,-4.6048 10.4887,-7.58939 16.7137,-8.69795 q 0,0 0.0853,0 0,0 0,0 2.3024,-0.3411 4.69007,-0.51164 c 4.00788,-0.0853 8.44213,0.42637 12.27946,1.87602 1.36438,0.51165 3.15514,1.53494 4.51952,2.13185 q 4.17843,-2.13185 8.44213,-4.2637 1.9613,-1.02328 4.00788,-2.04657 5.37226,0.0853 10.74453,0.17054 1.6202,0.93802 3.24041,1.87603 0.0853,0.0853 0.17055,0.0853 c 0.93801,0.42637 1.70548,0.85274 2.3024,1.19383 q 0.0853,0 0.0853,0 0.0853,0 0.0853,0.0853 0.93802,0.51164 1.79076,1.02329 0.0853,0.0853 0.17055,0.17054 0.17054,0.0853 0.25582,0.0853 c 2.04658,1.44966 3.83733,3.15514 5.11644,5.11644 1.27911,1.79075 1.53493,3.75206 1.79075,5.62809 q 2.72877,0.17054 5.37227,0.25582 1.53493,0.76746 3.06986,1.53493 0,0 0,0 0.51165,0.25582 0.93802,0.42637 0.0853,0 0.17055,0.0853 3.32568,-1.44965 6.73664,-2.81404 3.75206,1.27911 7.50412,2.55822 c 2.55822,0.93802 4.94589,2.13185 7.24829,3.49624 q 0.0853,0.0853 0.25582,0.17054 3.66678,-1.36438 7.41884,-2.72876 4.77535,0.59691 9.63597,1.19383 1.36438,0.93802 2.81404,1.79076 -0.3411,-0.17055 -0.68219,-0.3411 0.76746,0.42637 1.53493,0.76747 0.0853,0.0853 0.17055,0.0853 3.49623,-1.10856 6.99247,-2.21712 3.66678,1.53493 7.33356,3.24041 c 2.72877,1.19384 5.45754,2.81404 7.75994,4.6048 3.06986,-0.59692 6.225,-1.19384 9.38014,-1.53494 q 2.89932,-0.17054 5.71336,-0.42637 2.6435,1.27911 5.20172,2.55822 c 2.47294,1.27911 4.77534,2.81405 6.82192,4.51953 q 1.70548,-0.42637 3.32569,-0.85274 4.2637,-1.02329 8.44212,-2.04658 3.75206,2.6435 7.41884,5.20172 c 0.93802,0.68219 1.36439,1.53493 2.13185,2.3024 q 6.73665,-1.44966 13.64385,-2.81405 1.79075,2.3024 3.58151,4.51953 -1.10857,-0.25583 -2.21713,-0.59692 1.53494,1.19383 3.06987,2.38767 0.0853,0.0853 0.17055,0.17055 0.34109,0.17055 0.68219,0.42637 0.17055,0.17055 0.42637,0.42637 0.59692,0.51164 1.19383,1.10856 1.19384,1.10856 2.21713,2.38767 c 0.17055,0.25583 0.25582,0.51165 0.42637,0.6822 1.9613,-0.42637 3.83733,-0.93802 5.96918,-1.10857 q 0.17055,-0.0853 0.25582,-0.17054 -0.76746,-0.59692 -1.6202,-1.27912 2.55822,-0.42637 5.11644,-0.85274 1.27911,-0.85274 2.64349,-1.70548 0.3411,0.59692 0.59692,1.19384 11.08562,-1.70548 22.25652,-3.06986 2.21713,-0.3411 4.43425,-0.59692 0.85274,0.34109 1.79075,0.68219 4.17843,1.53493 8.35686,3.15514 1.02329,1.36438 2.04658,2.81404 -0.51165,-0.42637 -1.10857,-0.93801 0.17055,0.17055 0.3411,0.25582 0.0853,0.0853 0.0853,0.17055 c 0.85274,0.68219 1.62021,1.53493 2.3024,2.38767 0.59692,0.68219 1.19384,1.36438 1.62021,2.04658 0.34109,0.59691 0.51164,1.19383 0.85274,1.79075 q 6.05445,-0.68219 12.10891,-1.27911 1.53493,4.34898 2.98459,8.69795 13.1322,2.72877 26.00858,5.62809 -7.07775,4.43425 -14.07022,8.86849 0.25583,0.3411 0.59692,0.6822 -0.25582,-0.25583 -0.51164,-0.51165 0.51164,0.51165 1.10856,1.02329 0,0.0853 0.0853,0.17055 3.32569,-0.3411 6.73665,-0.68219 2.89932,2.38767 5.71336,4.69007 c 3.49624,2.89932 6.22501,6.65137 8.01576,10.4887 1.44966,-0.0853 2.72877,-0.42637 4.2637,-0.51164 q 0,0 0.0853,0 0,0 0,0 6.5661,-0.0853 12.96166,0.68219 2.55822,0.25582 5.03116,0.59692 1.96131,1.62021 3.92261,3.32569 1.27911,1.10856 2.47295,2.30239 c 5.28699,5.62809 8.10103,13.55857 6.31027,19.6983 q -0.0853,0.25583 -0.17054,0.51165 l -0.25583,0.51164 c 0.25583,-0.51164 -2.3024,5.03117 -6.65137,14.75241 -0.25582,0.51164 -2.81404,6.225 -3.06987,6.73665 q 5.03117,2.3024 10.06234,4.60479 -6.225,0.25583 -12.36473,0.59692 c -0.17055,0.3411 -1.27911,2.72877 -1.44966,2.98459 -2.6435,5.88391 -9.03905,9.55069 -16.03152,10.8298 -5.96918,1.10857 -13.04692,0.76747 -19.61302,-2.21712 -0.93802,-0.42637 -1.96131,-0.93802 -3.06987,-1.62021 q 0,0 -0.0853,0 -0.0853,-0.0853 -0.0853,-0.0853 c -5.11644,-3.06987 -9.29487,-7.84521 -11.25617,-12.45001 q 0,-0.0853 0,-0.0853 0,0 0,0 c -1.10856,-2.55822 -1.36438,-5.54281 -1.02329,-8.44213 q -1.19383,0.17055 -2.38767,0.25582 -1.44966,-2.21712 -2.81404,-4.43425 0.25582,0.17055 0.51164,0.25582 -1.27911,-1.6202 -2.47294,-3.24041 c -0.25583,-0.3411 -0.25583,-0.76747 -0.51165,-1.19384 q -5.79863,0.6822 -11.51199,1.36439 -1.44966,-2.21713 -2.98459,-4.34898 0.25582,0.0853 0.42637,0.17055 -1.27911,-1.6202 -2.47295,-3.24041 c -0.42637,-0.42637 -0.42637,-1.02329 -0.76747,-1.53493 q -6.05445,0.76746 -12.10891,1.53493 -1.53493,-2.04658 -3.06986,-4.17843 0.93801,0.3411 1.87603,0.68219 -1.44966,-1.19383 -2.89932,-2.38767 -0.25582,-0.34109 -0.59692,-0.68219 -0.17055,-0.17055 -0.42637,-0.42637 -0.0853,-0.17055 -0.25582,-0.3411 -0.59692,-0.59692 -1.19384,-1.27911 -5.79863,0.85274 -11.68254,1.79076 -1.19383,-1.79076 -2.47294,-3.49624 -0.3411,-0.42637 -0.59692,-0.85274 0.25582,0.0853 0.51164,0.25582 -1.36438,-1.6202 -2.72877,-3.15513 c -0.59692,-0.6822 -0.76746,-1.62021 -1.27911,-2.38768 q -4.17842,0.68219 -8.27158,1.53493 -2.38767,-1.02328 -4.77534,-1.9613 -1.10857,-0.42637 -2.13185,-0.93801 -0.0853,0 -0.17055,-0.0853 -0.0853,0 -0.17055,0 -1.53493,-0.76746 -2.98459,-1.6202 -0.0853,0 -0.0853,-0.0853 -0.0853,0 -0.0853,0 c -2.72877,-1.6202 -5.37226,-3.49623 -7.58939,-5.71336 q 0,0 0,0 c -1.53493,-1.53493 -2.21712,-3.41096 -3.32568,-5.11644 q -9.63597,2.13185 -19.10138,4.51953 -3.24042,-2.13185 -6.39556,-4.17843 c -2.64349,-1.70548 -4.60479,-3.83733 -6.82192,-5.79863 q -6.82192,1.87602 -13.55857,3.9226 -3.41096,-2.38767 -6.82192,-4.77535 c -0.3411,-0.25582 -0.42637,-0.59691 -0.76747,-0.85274 q -3.32568,1.10857 -6.65137,2.13186 -3.24041,-1.62021 -6.48083,-3.24042 c -3.24041,-1.53493 -5.96918,-3.9226 -8.5274,-6.39555 q -8.8685,3.15514 -17.48117,6.5661 -1.87603,-1.87603 -3.83733,-3.83733 1.36438,0.17055 2.72876,0.3411 -1.70548,-0.85274 -3.41096,-1.62021 -0.34109,-0.25582 -0.76746,-0.42637 -0.25582,-0.17055 -0.51165,-0.3411 -0.17054,-0.0853 -0.34109,-0.25582 -0.6822,-0.3411 -1.53494,-0.93801 -1.44965,0.59691 -2.98459,1.27911 -4.00788,1.70548 -7.93048,3.49623 -2.13185,-1.6202 -4.2637,-3.24041 0.34109,0 0.59692,0 -1.70548,-1.10856 -3.49624,-2.3024 c -0.34109,-0.25582 -0.51164,-0.59692 -0.85274,-0.85274 q -5.45754,2.55822 -10.74453,5.20172 -2.13185,-1.62021 -4.34897,-3.15514 0.3411,0 0.59692,0 -0.76747,-0.51165 -1.62021,-0.93802 -7.41884,3.75206 -14.58186,7.67466 -2.21712,-1.6202 -4.34897,-3.15513 0.42637,0 0.85274,0 -1.79076,-1.02329 -3.58151,-2.04658 c -1.02329,-0.59692 -1.70548,-1.62021 -2.72877,-2.38767 -0.59692,0.34109 -1.9613,1.10856 -2.47295,1.44965 -1.87602,1.02329 -3.06986,1.70549 -4.09315,2.38768 -0.51164,0.25582 -0.93801,0.42637 -1.36438,0.68219 -0.25583,0.17055 -0.42637,0.25582 -0.93802,0.51164 -0.25582,0.17055 -0.59692,0.25583 -1.44966,0.59692 -0.42637,0.17055 -0.93801,0.3411 -2.13185,0.59692 -0.68219,0.17055 -2.81404,0.42637 -2.81404,0.42637 0,0 -2.64349,0 -2.64349,0 0,0 -3.83734,-0.85274 -3.83734,-0.85274 q -0.25582,-0.0853 -0.51164,-0.17055 -0.25582,-0.0853 -0.51164,-0.17055 c -4.6048,-1.87602 -8.8685,-4.2637 -12.53529,-7.16301 -3.83733,-3.15514 -6.31027,-6.9072 -8.27158,-11.00035 -0.85274,2.21712 -2.13185,4.43425 -4.2637,6.31027 0,0 -0.42637,0.42637 -0.42637,0.42637 q 0,0 0,0 0,0 0,0 0,0 0,0 -0.25582,0.17055 -0.51164,0.3411 c -1.10856,0.76747 -0.68219,0.51164 -1.10856,0.76747 -0.59692,0.34109 -1.10857,0.76746 -1.70548,1.19383 -1.36439,0.93802 -3.58151,2.47295 -6.22501,4.34898 q -0.0853,0 -0.0853,0.0853 -0.0853,0 -0.0853,0 c -3.06986,2.04658 -7.24829,3.58151 -11.17089,4.09316 -5.03117,0.59691 -9.2096,-0.25583 -12.79111,-1.27911 -1.70548,-0.51165 -3.15513,-1.62021 -4.77534,-2.47295 q -6.48083,4.94589 -12.7911,9.97706 -4.00788,-0.93801 -8.01576,-1.87603 c -0.42637,-0.17055 -0.6822,-0.42637 -1.10857,-0.59692 q -2.64349,2.21713 -5.28698,4.43425 -1.96131,-0.25582 -3.92261,-0.42637 -1.62021,-0.17055 -3.24041,-0.34109 c -2.13185,-0.17055 -3.92261,-1.19384 -5.96918,-1.79076 q -5.45754,4.6048 -10.82981,9.38014 -2.38767,-1.19383 -4.86061,-2.38767 1.27911,-0.25582 2.64349,-0.59692 -1.87603,-0.17055 -3.75206,-0.42637 -0.34109,-0.0853 -0.76746,-0.17055 -0.3411,-0.0853 -0.59692,-0.0853 -0.25582,-0.0853 -0.42637,-0.17055 -0.76747,-0.17055 -1.70548,-0.42637 -0.0853,0 -0.17055,-0.0853 -0.0853,0 -0.17055,0 -1.02329,-0.42637 -2.04657,-0.85274 c -1.27912,-0.51165 -2.38768,-1.44966 -3.58151,-2.21713 q -7.75994,7.07775 -15.26405,14.24077 -2.47295,-0.93802 -4.9459,-1.79076 1.02329,-0.25582 1.96131,-0.51164 -1.87603,-0.17055 -3.75206,-0.3411 -0.42637,-0.0853 -0.76747,-0.17055 -0.25582,0 -0.51164,-0.0853 -0.25582,0 -0.51165,-0.0853 -0.76746,-0.17054 -1.70548,-0.34109 -0.0853,-0.0853 -0.17054,-0.0853 -0.0853,0 -0.17055,-0.0853 -0.85274,-0.25582 -1.70548,-0.51164 -0.25583,0 -0.42637,0 -3.15514,3.15514 -6.22501,6.31027 -2.47294,0.51165 -4.94589,1.02329 -1.19384,0.25582 -2.3024,0.51165 -0.0853,0 -0.17055,0 -0.0853,0 -0.17055,0 -1.79075,0.25582 -3.41096,0.42637 0,0 -0.0853,0 0,0 -0.0853,0 c -3.06987,0.17054 -6.31028,0 -9.29487,-0.59692 q 0,0 0,0 c -0.0853,-0.0853 -0.17055,-0.0853 -0.25582,-0.17055 q -3.06987,3.15514 -6.05446,6.31028 -3.83733,1.10856 -7.58939,2.3024 -1.70548,-0.17055 -3.32569,-0.3411 c -0.42637,0 -0.68219,-0.25582 -1.10856,-0.3411 q -2.3024,2.47295 -4.6048,5.03117 -3.5815,0.0853 -7.16301,0.17055 c -2.13185,0.0853 -4.09316,-0.76747 -6.13973,-1.10856 q -4.34898,4.94589 -8.69795,9.80651 -2.55822,-0.59692 -5.11644,-1.19384 0.25582,-0.0853 0.42637,-0.17054 -2.04658,-0.3411 -4.00788,-0.76747 c -0.25583,0 -0.42637,-0.17055 -0.59692,-0.25582 -0.85274,1.02329 -1.9613,2.55822 -2.55822,3.32568 -0.76747,0.93802 -1.36439,1.70549 -1.87603,2.3024 -0.25582,0.3411 -0.51165,0.59692 -0.85274,1.02329 -0.25582,0.25582 -0.42637,0.51165 -0.93802,0.93802 -0.25582,0.25582 -0.59691,0.59691 -1.27911,1.02328 -0.25582,0.25583 -0.68219,0.59692 -1.36438,1.02329 -0.59692,0.3411 -3.06987,1.44966 -3.06987,1.44966 q -1.19383,0.42637 -2.30239,0.85274 -1.19384,0.0853 -2.38768,0.17055 c -5.96918,0.42637 -12.27946,1.87603 -19.3572,4.6048 q -5.62809,2.21712 -11.682542,5.54281 -17.054804,9.20959 -33.768513,18.93083 8.101032,-15.17877 16.543161,-30.35755 c 2.217124,-3.83733 5.286989,-7.33357 8.868498,-10.74453 q -3.325687,-5.79863 -6.736648,-11.59727 0.08527,0.0853 0.08527,0.17055 -0.938014,-1.53493 -1.620206,-3.24041 c -0.767466,-1.79075 -1.193837,-3.66678 -1.534933,-5.62809 -0.170548,-1.02328 0.255822,-2.21712 0.255822,-3.24041 -1.023288,0 -1.961302,0.25582 -3.069864,0.25582 q 0,0 0,0 0,0 0,0 c -7.930485,-0.0853 -14.667132,-2.81404 -19.954122,-6.82192 0,-0.0853 0,0 -0.08527,-0.0853 q 0,0 0,0 -0.08527,0 -0.08527,-0.0853 10.147609,-8.44212 20.636314,-16.79898 c -2.558221,-2.04658 -3.752057,-1.87603 -4.348976,-1.9613 q -0.42637,-0.0853 -0.596918,-0.0853 z m 10.573979,37.86167 q -0.08527,-0.0853 -0.170548,-0.17055 0.08527,0.0853 0.170548,0.17055 z m 91.584304,-68.90141 q 0.25582,0 0.42637,0 0,0 -0.0853,0 -0.17055,0 -0.3411,0 z m 108.9802,-11.1709 c 1.27911,-0.76746 2.47295,-1.6202 3.83733,-2.3024 q 2.47295,-1.19383 4.9459,-2.47294 0.93801,0.0853 1.79075,0.17055 -0.51164,-1.53494 -1.02329,-3.15514 -1.19383,-3.75206 -2.3024,-7.41884 -3.75205,7.58938 -7.24829,15.17877 z m 138.31447,-19.6983 q 0,0 0.0853,0.0853 0,0 0,0 0,-0.0853 -0.0853,-0.0853 0,0 0,0 z m 0.0853,0.0853 q 0,0 0,0 0,0 0,0 z m -165.09051,20.89213 c -1.10856,0.25583 -1.70548,0.6822 -2.21712,0.93802 q 0.93801,0.51164 1.87603,1.02329 1.36438,-0.25583 2.64349,-0.59692 0,-0.68219 0,-1.44966 c -0.51164,-0.0853 -1.19383,-0.17055 -2.3024,0.0853 q 0,0 0,0 z m 386.63243,29.33427 c -0.6822,-0.25582 -0.85275,-0.17055 -1.44966,-0.25582 0,0.42637 0,0.93801 -0.0853,1.36438 q 0.17055,0.17055 0.25582,0.3411 1.19384,0.51164 2.47295,1.02328 0.42637,-0.68219 0.76747,-1.27911 c -0.3411,-0.34109 -0.85274,-0.76746 -1.9613,-1.19383 q 0,0 0,0 z m -29.16372,-4.9459 v -0.0853 q -0.17055,-0.17055 -0.25582,-0.3411 0.0853,0.25583 0.25582,0.42637 z m -449.82047,6.22501 q 0,0 -0.0853,-0.0853 0.0853,0.0853 0.0853,0.0853 z m 178.30798,-34.53598 q 0,0 0,0 0,0 0,0 0,0 0,0 z m 0,0 q 0,0 0,0 0,0 0,0 z m 0.85274,0.34109 q 0,0 0,0 0,0 0,0 z m 0,0 q -0.42637,-0.17054 -0.85274,-0.34109 c 0.17055,0.0853 0.25582,0.17055 0.42637,0.25582 0.17055,0 0.25582,0 0.42637,0.0853 z m -224.78236,64.97879 q -0.68219,-1.36438 -1.36438,-2.81404 0,0 -0.0853,0 0.76747,1.44966 1.44966,2.81404 z M 361.6714,339.71898 c 0.59692,0.59691 1.10857,1.27911 1.62021,1.9613 0.0853,-1.10856 0.17055,-2.13185 0.51164,-3.24041 q -1.10856,0.68219 -2.13185,1.27911 z m 4.09316,5.03116 q 0,0 0,0 z m 0.0853,0.17055 q 0,0 0,0 z m 0,0 -0.0853,-0.17055 q 0,0.0853 0,0.17055 0.0853,0 0.0853,0 z m -7.50411,5.11644 q 0,0.0853 0.0853,0.0853 -0.0853,0 -0.0853,-0.0853 z m 0.25582,0.51165 q 0,0 0,0 0,0 0,0 z m 0,0 q -0.0853,-0.25582 -0.17055,-0.42637 c 0,0.0853 0,0.17055 0,0.25582 0.0853,0.0853 0.0853,0.0853 0.17055,0.17055 z m 8.1863,1.9613 q 0,0 0,0 0,0 0,0 z m 0,0 q 0,0 0,0 0,0 0,0 0,0 0,0 z m -9.12432,7.41884 q 0,0 0,0 0,0 0,0 z m -0.25582,0.3411 q 0,0 0.0853,0 -0.0853,0 -0.0853,0 z m 0.0853,0 c 0,-0.0853 0.17054,-0.3411 0.17054,-0.3411 0,0 -0.0853,0 -0.0853,0.0853 -0.0853,0.0853 -0.0853,0.17055 -0.0853,0.25583 z m -91.32848,17.0548 q 0,0 0,0 0,0 0,0 z m 0,0 q 0.0853,0 0.0853,0.0853 0,-0.0853 0,-0.0853 -0.0853,0 -0.0853,0 z m -12.87638,2.98459 q 0,0 0,0 0,0 0,0 z m 0,0 q 0.0853,0.0853 0.25582,0.17055 c -0.0853,0 -0.0853,-0.0853 -0.0853,-0.0853 0,0 -0.0853,-0.0853 -0.17055,-0.0853 z m 358.91836,17.90755 q 0,0 0,0 0,0 0,0 z m 0,0 c 0.0853,0 0.0853,0.25582 0.0853,0.25582 q 0,0 0,0 0,0 0,0 0,0 0,0 c 0,-0.0853 0,-0.0853 0,-0.17055 q 0,0 -0.0853,-0.0853 z m -150.1676,-35.30345 c -0.0853,-0.0853 0,-0.0853 -0.0853,-0.0853 0,-0.0853 -0.0853,-0.0853 -0.0853,-0.17055 q 0.0853,0.0853 0.17055,0.25582 z m -122.70932,4.77535 q 0,0 0,0 0,0 0,0 z m 0,0 c 0.0853,0 0.17055,0 0.17055,0 q 0,0 0,0 -0.0853,0 -0.17055,0 z m 0.17055,0 q 0,0 0,0 0,0 0,0 z m 275.43509,36.66783 q 0,0 0,0.0853 0,-0.0853 0,-0.0853 z m 0,0.0853 q 0.17055,0.17055 0.25583,0.3411 0,0 0,-0.0853 -0.0853,-0.17055 -0.25583,-0.25582 z m -269.46591,5.71336 c 3.15514,-0.3411 5.54281,-0.25582 9.29487,-0.17055 6.31028,0.25582 12.36473,1.62021 17.90754,4.09315 q 0,0 0,0 c 4.51953,1.96131 8.18631,4.6048 11.34145,7.58939 q 1.87603,-1.27911 3.83733,-2.55822 3.58151,1.44966 7.07774,2.89932 c 0.93802,0.42637 1.44966,1.10856 2.3024,1.62021 q 2.38767,-1.53494 4.77535,-3.06987 4.34897,-0.0853 8.61267,-0.0853 1.19384,0.76746 2.38768,1.6202 -0.3411,-0.17055 -0.6822,-0.25582 0.17055,0.0853 0.42637,0.17055 0.25583,0.17055 0.51165,0.25582 0.25582,0.17055 0.42637,0.25582 0.59692,0.3411 1.27911,0.76747 1.02329,0.59692 1.9613,1.27911 0.0853,0.0853 0.25582,0.17055 0.0853,0.0853 0.25582,0.25582 c 0.17055,0.0853 0.25583,0.3411 0.42637,0.51164 1.44966,-1.02328 2.89932,-1.9613 4.51953,-2.72877 q 2.13185,-2.81404 4.2637,-5.62808 1.36438,1.62021 2.72877,3.32569 c 0.17055,0 0.25582,-0.0853 0.42637,-0.17055 q 4.09315,-0.68219 8.1863,-1.36439 3.49624,4.34898 6.82193,8.78323 4.94589,-2.6435 9.97706,-5.11644 1.6202,-0.0853 3.24041,-0.0853 c 0.42637,0.0853 0.76747,0.0853 1.10856,0.0853 q 0.68219,-0.3411 1.36439,-0.59692 7.41884,-3.58151 15.00822,-6.9072 1.79076,-0.76746 3.58151,-1.53493 4.34898,0.59692 8.69795,1.27911 1.19384,1.19384 2.38768,2.3024 1.10856,0.76747 2.13185,1.79075 c 0.42637,0.3411 0.85274,0.6822 1.19383,1.02329 0,0 0.17055,0.25582 0.17055,0.25582 q 0.0853,0.0853 0.17055,0.25583 c 1.44966,1.53493 2.55822,3.32568 3.32569,5.28699 0.25582,0.68219 0.0853,1.44965 0.17054,2.21712 q 5.96919,1.10856 11.93837,2.38767 -7.24829,8.95378 -14.15549,18.0781 l -2.47295,13.38802 q 5.79864,4.34897 11.42672,8.8685 c -10.74452,4.17842 -21.06268,8.78322 -30.95447,13.81439 q -1.53493,-1.87603 -2.98459,-3.66679 0.85274,0.0853 1.79076,0.17055 -1.27911,-0.85274 -2.55823,-1.70548 -0.25582,-0.0853 -0.42637,-0.25582 -0.34109,-0.25582 -0.68219,-0.51164 -0.25582,-0.25583 -0.51164,-0.42637 0,-0.0853 -0.17055,-0.25583 -0.17055,-0.0853 -0.42637,-0.25582 -0.0853,-0.17055 -0.25582,-0.34109 -0.68219,-0.59692 -1.27911,-1.36439 c -0.25582,-0.25582 -0.42637,-0.68219 -0.68219,-1.02329 -0.93802,0.51165 -2.13185,1.19384 -3.49624,1.96131 h -0.0853 l -0.0853,0.0853 c -1.87603,0.93801 -4.17842,1.62021 -6.39555,1.87603 q -1.53493,0.0853 -2.98459,0 c -4.00788,-0.42637 -7.16302,-2.04658 -9.72124,-3.75206 -0.59692,-0.42637 -1.02329,-1.10856 -1.53493,-1.53493 q -3.32569,2.13185 -6.65137,4.17843 -2.04658,-0.25583 -4.09316,-0.42637 -0.93801,-0.17055 -1.87603,-0.25583 -0.0853,-0.0853 -0.17054,-0.0853 -0.0853,0 -0.0853,0 -1.44966,-0.25582 -2.72877,-0.68219 -0.0853,0 -0.0853,0 0,0 -0.0853,0 c -2.47294,-0.76747 -4.94589,-1.87603 -7.16301,-3.32569 q 0,0 0,0 c 0,0 0,-0.0853 -0.0853,-0.0853 q -2.89931,1.9613 -5.8839,4.00788 -3.49624,0 -7.07775,0.0853 -1.10856,-0.68219 -2.3024,-1.44966 0.25582,0.17055 0.51165,0.25582 -0.59692,-0.25582 -1.10857,-0.51164 -0.0853,0 -0.0853,-0.0853 -2.38767,1.70548 -4.69007,3.41096 -2.89932,-0.85274 -5.79863,-1.79076 c -2.21713,-0.59692 -4.34898,-1.6202 -6.39556,-2.81404 -0.68219,0.85274 -1.10856,1.79075 -1.87602,2.55822 0,0 -0.0853,0.0853 -0.0853,0.0853 q 0,0 -0.0853,0 c -4.43425,4.43425 -10.57398,7.93049 -17.3959,8.61268 q -0.85274,0.0853 -1.96131,0.17055 c -5.62808,0.17055 -11.08562,-1.02329 -17.3959,-2.72877 -6.48082,-1.79076 -12.27946,-4.09315 -17.31062,-7.24829 q 0,0 0,0 c -5.54282,-3.32569 -10.14761,-7.75994 -13.21748,-12.87638 q 0,0 0,-0.0853 -0.0853,0 -0.0853,0 c -1.79076,-3.15514 -3.06987,-6.39556 -3.75206,-9.80652 q -0.17055,-1.36438 -0.25582,-2.72877 c -0.25582,-4.34897 0.68219,-8.78322 2.64349,-13.1322 1.96131,-4.43424 5.11645,-8.61267 9.29487,-12.7911 q 0,-0.0853 0.0853,-0.0853 c 2.04657,-2.04658 4.60479,-4.09316 8.10103,-6.73665 q 0,0 0,0 v -0.0853 c 1.79075,-1.27911 3.32569,-2.38768 4.6048,-3.24042 1.36438,-0.85274 1.44965,-1.44966 5.37226,-2.81404 q 0.17055,-0.0853 0.3411,-0.0853 c 0,0 0.42637,-0.0853 0.42637,-0.0853 1.79075,-0.59692 2.47294,-0.59692 3.24041,-0.68219 q 0,0 0,0 z m 144.36892,6.73665 q 0.17055,0.17055 0.3411,0.25582 0,0 0,0 -0.17055,-0.0853 -0.3411,-0.25582 z m -2.04658,11.68254 c 0,0 0,0 0,0.0853 q 0.0853,0 0.0853,0.0853 l -0.0853,-0.17055 q 0,0 0,0 z m 0.0853,0.17055 q 0,0 0,0 z m -168.4162,8.61267 q 0,0 0,0.0853 0,0 0,0 0,-0.0853 0,-0.0853 z m 27.45824,0.25583 q 0.25582,0 0.51164,0 -0.17055,0 -0.17055,0 -0.0853,0 -0.0853,0 c -0.76747,0.0853 -1.70548,0.34109 -2.81404,0.85274 -0.17055,0.0853 -0.25583,0.0853 -0.42637,0.34109 -0.17055,0.17055 -0.25583,0.25582 -0.25583,0.51165 h -0.0853 c -0.17055,1.10856 -0.17055,1.9613 -0.0853,2.72876 0.0853,0.51165 0.17054,0.93802 0.34109,1.36439 v 0.0853 c 0.42637,0.93802 1.36439,2.55822 3.32569,4.51953 q 0,0 0,0 0,0 0,0 c 2.55822,2.72876 6.73665,4.69007 12.02364,6.48082 0.85274,-1.02329 1.6202,-1.9613 1.79075,-3.06986 q 0.25582,-1.53494 0.0853,-2.81405 c -0.17055,-1.6202 -0.6822,-2.89931 -1.62021,-4.2637 q 0,0 -0.0853,0 0,-0.0853 0,-0.0853 c -1.9613,-2.6435 -5.28698,-4.94589 -11.68254,-6.65137 0.3411,0.0853 0.3411,0.0853 -0.25582,-0.0853 0,0 0,0 0.0853,0.0853 q -0.25583,0 -0.59692,0 z m 0.76746,0 q -0.0853,0 -0.25582,0 0.0853,0 0.17055,0 0,0 0.0853,0 z m -18.93083,23.962 q 0,0 0,0 0,0 0,0 0,0 0,0 z m 0,0 q 0,0 0,0 0,0 0,0 z m 144.02783,10.1476 q 0,0 0,0 0,0 0,0 z m 0,0 q 0,0 0.0853,0.0853 0,-0.0853 -0.0853,-0.0853 0,0 0,0 z m 0.0853,0.0853 q 0,0 0,0 0,0 0,0 z m -20.20994,0.42637 q 0,0 0,0 0,0 0,0 z m 0,0 q 0.0853,0 0.17054,0 -0.0853,0 -0.0853,0 0,0 -0.0853,0 z m 0.17054,0 q 0,0 0,0 0,0 0,0 z"
     id="path134"
     style="display:none;stroke-width:0.85274" /><path
     fill-rule="evenodd"
     class="a"
     d="m 69.535688,380.48481 q 0.511644,0.3411 5.286989,0.25582 4.775346,-0.17055 10.915075,-1.9613 c 1.620207,-0.42637 5.969182,-1.9613 13.55857,-4.6048 7.589388,-2.64349 13.388018,-4.00788 17.481178,-4.00788 q 6.13973,-0.0853 13.1322,6.13973 c -3.15514,-0.76746 -11.512,0.68219 -24.72947,4.69007 q -1.10856,3.92261 0.85274,9.12432 0.42637,0.93802 0.85274,1.87603 1.02329,1.96131 1.9613,3.92261 0.25582,0.51164 0.51165,1.02329 1.19383,-0.25583 2.30239,-0.51165 4.6048,-0.93801 6.65138,-1.70548 0.59692,-0.17055 1.02329,-0.42637 2.47294,-1.19384 2.89931,-3.06986 0.25583,-1.02329 0,-1.70548 2.98459,1.19383 3.58151,2.98459 0.51165,1.36438 -0.34109,3.15514 -1.70548,3.24041 -5.54281,4.69007 -0.93802,0.34109 -1.96131,0.59691 c -3.06986,0.76747 -4.94589,1.19384 -5.79863,1.36439 q 0.25582,0.51164 0.51164,0.93801 0.85274,1.62021 2.04658,4.86062 l 0.51164,1.36439 q 1.02329,3.66678 -2.21712,7.58939 2.72877,-1.36439 5.79863,-2.55823 c 6.31028,-2.38767 13.64385,-3.9226 22.17125,-4.69007 -5.45754,7.07775 -8.27158,10.74453 -8.44213,10.8298 -7.75994,0.51165 -15.86097,2.38768 -24.21782,5.71336 q -6.73665,2.55822 -13.643845,6.39556 c 2.387672,-4.26371 6.480825,-8.52741 12.279455,-12.62056 q -0.0853,-1.36438 -0.51164,-2.47295 -0.25582,-0.68219 -0.59692,-1.19383 -4.17843,-7.50412 -8.442127,-14.92296 -0.682192,-0.93801 -1.108562,-2.13185 -0.682192,-1.70548 -0.938014,-3.9226 -0.511644,-3.15514 0.341096,-6.13973 1.023288,-3.66679 4.007879,-6.9072 -3.496235,0.93802 -6.99247,1.87603 -3.496235,0.85274 -10.488705,0.76747 -6.907196,0 -12.705829,-4.6048 0,0 0,0 z m 65.746272,-19.10138 q 0.0853,0 0.0853,0 0.0853,0 0.17055,0 0.17055,0 0.25582,0 0.25582,0 0.42637,0 0.59692,0.0853 1.10856,0.17055 0.68219,0.0853 1.27911,0.25582 1.62021,0.51164 2.72877,1.27911 1.36439,1.02329 1.87603,2.55822 l 11.1709,32.57468 q 1.10856,3.41096 5.45754,3.75205 -3.15514,3.49624 -6.31028,7.07775 0,0 0,-0.0853 -0.0853,0.0853 -0.0853,0.0853 c -4.34898,-0.85274 -7.07775,-2.81405 -8.18631,-5.88391 l -10.8298,-30.8692 q -0.51164,-1.27911 -1.44966,-2.13185 -0.76747,-0.68219 -1.87603,-1.10856 -1.27911,-0.42637 -2.38767,-0.51164 3.24041,-3.58151 6.5661,-7.16302 0,0 0,0 z m 36.7531,-12.10891 q 0.0853,0 0.0853,0 0.0853,0 0.0853,0 0.17055,0.0853 0.3411,0.0853 0.25582,0 0.42637,0 0.59692,0.0853 1.10856,0.17055 0.68219,0.17055 1.27911,0.34109 1.62021,0.51165 2.64349,1.36439 1.36439,1.02329 1.79076,2.55822 l 10.14761,33.00105 q 0.68219,2.3024 3.06986,3.32568 0.93802,0.3411 2.21713,0.51165 -3.24042,3.41096 -6.48083,6.82192 -0.0853,0 -0.0853,0.0853 -2.13185,-0.25582 -3.92261,-1.36438 -1.79075,-1.02329 -2.89931,-2.47295 -4.09316,4.2637 -8.01576,8.52741 c -5.20172,0.17054 -8.78323,-1.27912 -10.57398,-4.26371 q 0,0 -0.0853,0 -0.42637,-0.68219 -0.85274,-1.70548 0.0853,0 0.0853,0 l -4.6048,-13.55857 q -0.68219,-2.13185 1.53493,-5.54281 1.79076,-2.64349 5.45754,-6.05445 3.58151,-3.32569 7.50412,-6.13973 l -1.53494,-4.77535 q -0.42637,-1.27911 -1.36438,-2.21712 -0.76747,-0.6822 -1.87603,-1.10857 -1.27911,-0.51164 -2.38767,-0.59691 3.41096,-3.49624 6.90719,-6.99247 0,0 0,0 z M 319.3033,315.33546 q 0.0853,7.75993 0.25582,15.43459 0.0853,0.76747 -0.59691,1.44966 -0.76747,0.68219 -1.87603,0.85274 -1.10857,0.17055 -2.04658,-0.25582 -0.85274,-0.42637 -0.93801,-1.19384 l -0.0853,-0.0853 q -2.13185,-7.41884 -4.2637,-14.75241 4.77535,-0.76746 9.55069,-1.44965 z m 100.87917,-6.5661 q 0,0.0853 0,0.0853 0.0853,0 0.17055,0 0.17055,0.0853 0.25582,0.17055 0.25582,0.0853 0.42637,0.17055 0.51165,0.17054 1.10856,0.51164 0.59692,0.3411 1.10857,0.68219 1.53493,1.02329 2.30239,2.13185 1.02329,1.36439 0.93802,2.98459 -0.3411,19.18666 -0.68219,38.37331 c -0.0853,2.38768 1.27911,4.17843 3.9226,5.45754 q -4.2637,2.21713 -8.44213,4.43425 -0.0853,0 -0.0853,0 0,0 -0.0853,0 c -3.83734,-2.21712 -5.79864,-4.94589 -5.79864,-8.27158 v -1.62021 q -0.0853,0 -0.17055,0 c -14.15548,7.84521 -20.89213,12.10892 -21.06268,12.10892 q -5.20172,-2.13186 -8.95377,-5.28699 c -3.75206,-3.06987 -6.13973,-7.07775 -7.24829,-12.19419 q -0.25583,-1.19384 -0.3411,-2.38767 c -0.25582,-5.20172 1.87603,-10.65926 6.65137,-16.28734 q 0.42637,-0.51164 0.93802,-1.02329 0.51164,-0.51164 1.02329,-1.02329 1.27911,-1.36438 1.9613,-2.13185 1.87603,-2.38767 1.87603,-4.2637 l -0.0853,-0.42637 q -0.17055,-1.27911 -2.04657,-2.21712 -1.70548,-0.85274 -3.41096,-0.76747 -0.17055,0 -0.25583,0 -2.55822,0.17055 -3.9226,1.44966 -0.93802,0.85274 -0.85274,1.87603 0.0853,0.68219 0.42637,1.36438 0,0 0,0 -0.0853,0 -0.0853,-0.0853 -0.0853,-0.0853 -0.25582,-0.17055 -0.34109,-0.17055 -0.68219,-0.51164 -0.51164,-0.42637 -0.93801,-0.76747 -0.51165,-0.51165 -0.76747,-1.02329 -0.68219,-1.27911 -0.76747,-2.55822 -0.0853,-1.62021 1.02329,-2.98459 1.87603,-2.38767 6.82192,-3.24041 1.10857,-0.17055 2.04658,-0.25583 2.47295,-0.0853 4.34898,0.59692 c 2.38767,0.85274 6.05445,2.55822 10.74452,5.03117 q -1.36438,1.19384 -2.64349,2.47295 -2.72877,2.47294 -5.54281,6.99247 c -2.21713,3.66678 -3.49624,6.82192 -3.83734,9.55069 q -0.25582,1.87603 -0.17054,3.66678 0.17054,4.43425 2.21712,8.27158 c 2.21713,4.09315 5.79863,7.41884 10.74453,10.06234 q 6.48082,-3.66679 13.1322,-7.2483 l 0.0853,-31.72193 q 0,-2.38768 -2.21712,-4.09316 -1.10857,-0.85274 -2.21713,-1.27911 4.51953,-2.3024 9.12432,-4.60479 0.0853,0 0.17055,0 z m 207.30115,39.48187 q 0,0 0,0 0.0853,0.0853 0.17055,0.0853 0.0853,0.17055 0.17055,0.25582 0.17055,0.17055 0.34109,0.3411 0.42637,0.3411 0.76747,0.76747 0.51164,0.51164 0.85274,1.02329 1.02329,1.44965 1.36439,2.72876 0.42637,1.70548 -0.0853,3.15514 l -12.19418,32.23358 q -1.27911,3.32569 1.87602,6.39556 -4.69007,0.68219 -9.46541,1.36438 0,0 0,0 0,-0.0853 -0.0853,-0.0853 -2.04657,-2.38768 -2.72877,-4.69008 -0.85274,-2.55822 0.0853,-5.03116 l 11.08562,-30.78393 q 0.42637,-1.27911 0.25582,-2.55822 -0.25582,-1.02328 -0.85274,-2.04657 -0.76746,-1.19384 -1.6202,-1.96131 3.41096,-0.42637 6.82192,-0.85274 1.53493,-0.17054 3.15514,-0.34109 0.0853,0 0.0853,0 z M 261.31697,331.62279 q 1.02328,0.51165 2.13185,0.76747 1.9613,0.3411 4.17842,-0.0853 1.19384,-0.25583 2.47295,-0.76747 -1.36438,3.06986 -4.17843,5.28699 -2.13185,1.62021 -4.43425,2.13185 -4.09315,0.93801 -9.03904,-1.62021 3.75205,-3.24041 7.58939,-6.48082 0.59691,0.42637 1.27911,0.76746 z m 384.92694,30.01646 q 0.59692,0.93801 1.36438,1.79075 1.36439,1.36439 3.41096,2.21713 1.19384,0.51164 2.47295,0.76747 -2.81404,1.79075 -6.31028,2.13185 -2.64349,0.17054 -4.86062,-0.6822 -3.9226,-1.6202 -6.65137,-6.48082 4.94589,-0.59692 9.89179,-1.10856 0.25582,0.68219 0.68219,1.36438 z m -36.49728,7.33357 q -0.17055,0.0853 -0.3411,0.0853 -10.65925,1.70548 -21.14796,3.75206 0.0853,1.6202 0.59692,3.15514 0.76747,2.21712 2.13185,4.00788 c 2.04658,2.55822 4.94589,4.51952 8.78322,5.8839 q 1.87603,0.59692 4.00788,1.10857 -6.5661,1.10856 -13.04692,2.38767 -0.68219,-0.25582 -1.44966,-0.59692 -0.93801,-0.51164 -1.79075,-1.02329 -2.47295,-1.36438 -4.26371,-3.15514 -5.11644,-5.20171 -4.69007,-12.96165 0.17055,-2.3024 0.85274,-4.6048 0.76747,-2.64349 2.47295,-5.20171 c 4.00788,-6.39555 10.8298,-9.03905 20.38049,-7.67466 q 3.83733,7.41884 7.50412,14.83768 z m 99.7706,28.90789 q 0.68219,0.59692 1.36439,1.27911 4.69007,4.86062 3.24041,9.72124 0,0.0853 -6.65137,14.66713 -6.5661,14.58186 -6.73665,15.00823 -2.04658,4.43425 -9.03905,5.71336 -5.96918,1.10856 -10.57398,-1.02329 -0.76746,-0.3411 -1.53493,-0.76747 -3.66678,-2.21712 -5.28699,-5.96918 -1.02329,-2.47294 -0.25582,-4.2637 0.51164,-1.10856 1.79075,-1.87603 2.13185,-1.36438 4.77535,-0.17054 0.17055,0.0853 0.34109,0.0853 0.6822,0.3411 1.27912,0.85274 0.25582,0.17055 0.42637,0.3411 0.0853,0.0853 0.17054,0.0853 0,0 0,0.0853 -2.13185,0.0853 -2.98459,1.27911 l -0.0853,0.25583 q -0.42637,1.02328 0.17055,2.21712 0.76746,1.36438 2.3024,2.04658 0.17054,0.0853 0.25582,0.17055 2.04657,0.76746 4.43425,0.17054 3.41096,-0.76746 4.69007,-3.49623 l 3.66678,-8.18631 q -5.54281,0.51165 -11.00035,1.02329 -5.88391,-5.11644 -4.86062,-10.31816 0,0 -0.0853,0 0.17055,-0.85274 0.59692,-1.9613 0,0 0,0.0853 l 6.05445,-13.47329 q 0.93802,-2.13185 4.77535,-3.15514 3.15514,-0.76747 8.01576,-0.93801 5.54281,-0.0853 10.74452,0.51164 0,0 0,0 z M 223.62585,371.18994 q 1.10856,4.09315 1.79075,9.03905 -0.42637,0.34109 -0.85274,0.59692 -4.34897,4.2637 -8.61267,8.61267 -0.6822,0.17055 -1.44966,0.25582 -1.02329,0.17055 -2.04658,0.25583 -2.72877,0.17054 -5.20172,-0.3411 -6.99247,-1.44966 -10.8298,-8.18631 -1.19383,-1.9613 -1.87602,-4.17842 -0.76747,-2.72877 -0.85275,-5.79864 -0.0853,-4.94589 2.3024,-8.95377 2.98459,-5.11644 9.89179,-8.5274 c 8.69795,-0.51165 14.58186,5.28699 17.737,17.22535 z m 115.80212,-43.57503 q 3.58151,-0.42637 7.41884,1.02329 4.2637,1.62021 5.96918,4.2637 -3.9226,2.6435 -7.93048,5.28699 0,-0.17054 -1.87603,-1.53493 -2.13185,-1.44966 -3.83733,-1.9613 -1.53493,-0.51165 -3.83733,-0.42637 -0.0853,0 -0.25582,0.0853 -0.59692,0.0853 -0.93802,0.25582 -0.0853,0.0853 -0.0853,0.0853 -1.19384,0.85274 -1.02329,1.9613 v 0.0853 q 0.0853,0.42637 0.42637,0.93801 0.17055,0.25582 0.51164,0.59692 c 1.10857,0.93801 4.43425,2.13185 9.97706,3.75205 5.54282,1.62021 8.69795,3.49624 9.29487,5.62809 q 0.68219,1.87603 0.85274,3.41096 0,0.68219 0,1.27911 -0.25582,2.72877 -2.21712,4.51952 c -0.17055,0.17055 -3.06987,2.13186 -8.5274,6.05446 q -1.53494,1.02329 -3.49624,1.27911 -2.47295,0.25582 -5.71336,-0.76747 c -3.83733,-1.19383 -6.05445,-2.89931 -6.73665,-5.20171 q 3.66679,-2.6435 7.33357,-5.28699 0.51164,1.02329 1.62021,1.87603 2.98459,2.47294 6.5661,2.72877 0.59691,0.0853 1.10856,0 1.6202,-0.17055 2.21712,-1.27911 0.17055,-0.17055 0.25582,-0.6822 0,-0.0853 0,-0.25582 v -0.25582 q 0,-0.25582 0,-0.51164 -0.0853,-0.42637 -0.17054,-0.76747 c -0.93802,-2.38767 -3.66679,-4.17843 -8.01576,-5.20172 -4.43425,-1.02328 -7.24829,-1.70548 -8.44213,-2.21712 q -4.69007,-1.79075 -5.20172,-5.03117 v -0.42637 q -0.17054,-2.98459 2.47295,-5.37226 c 0,0 0.51165,-0.42637 0.51165,-0.42637 q 5.28699,-3.75206 10.65925,-7.33357 0.51164,-0.17055 1.10856,-0.17055 0,0 0,0 z m -94.90999,16.96954 q 5.37227,0.25582 8.27158,2.47294 -3.75205,3.24042 -7.41884,6.48083 -0.51164,-1.62021 -3.9226,-2.21713 -2.38767,2.13185 -4.69007,4.2637 l 4.17842,16.88426 q 0.25583,1.19384 1.19384,2.21713 0.68219,0.76746 1.70548,1.27911 1.27911,0.68219 2.3024,0.85274 -3.49624,3.15514 -6.99247,6.48082 0,-0.0853 0,-0.0853 -0.0853,0 -0.0853,0 -0.0853,0 -0.0853,0 -0.17055,0 -0.34109,0 -0.17055,-0.0853 -0.42637,-0.0853 -0.51165,-0.17054 -1.02329,-0.25582 -0.59692,-0.17055 -1.27911,-0.42637 -1.44966,-0.59692 -2.47295,-1.44966 -1.19384,-1.10856 -1.62021,-2.64349 l -4.94589,-18.93083 q -0.59692,-2.3024 -2.98459,-3.41097 -1.27911,-0.59691 -2.38767,-0.76746 3.58151,-3.32569 7.16301,-6.5661 0,0 0,-0.0853 0.0853,0.0853 0.25583,0.0853 0.0853,0 0.17054,0 0.25583,0 0.42637,0.0853 0.42637,0.0853 0.93802,0.17055 0.51164,0.17055 1.10856,0.3411 1.36439,0.42637 2.3024,1.10856 1.36438,0.85274 1.87603,2.04658 4.34897,-3.92261 8.78322,-7.84521 0,0 0,0 z m 0,0 q 0,0 0,0 z m 60.54456,-8.01576 q 2.21712,1.87603 2.64349,4.69007 l 2.81405,17.65172 q 0.17055,1.02329 0.93801,1.79076 0.68219,0.68219 1.62021,1.27911 1.19383,0.59691 2.21712,0.93801 -3.75205,2.89932 -7.58939,5.79863 -2.13185,-0.51164 -3.9226,-2.04657 -1.27911,-1.10856 -2.3024,-2.72877 -4.69007,3.75206 -9.29487,7.58939 -0.93801,-0.0853 -1.87603,-0.25583 -6.225,-1.10856 -8.1863,-5.28698 0,0 0,0 -0.42637,-0.76747 -0.68219,-1.79076 0.0853,0 0.0853,0 l -2.81404,-14.07021 q -0.42637,-2.13185 2.30239,-5.28699 1.36439,-1.62021 3.66679,-3.41096 1.19383,-0.93802 2.55822,-1.87603 4.77534,-3.32569 9.63596,-5.79864 5.37227,0.51165 8.18631,2.81405 z m 153.49324,-11.42672 q 5.20172,1.79075 7.41884,4.77534 1.70548,2.3024 1.44966,5.11644 l -1.62021,17.05481 q -0.25582,2.89932 2.3024,4.94589 0.59692,0.42637 1.36439,0.85274 -0.76747,0.3411 -1.53494,0.59692 -3.75205,1.62021 -7.41884,3.24041 0,-0.0853 0,-0.0853 -0.0853,0 -0.0853,0 c -3.75206,-2.47295 -5.54281,-5.37226 -5.28699,-8.69795 l 1.36439,-18.93083 q 0.17054,-1.70548 -3.15514,-3.41096 -3.06987,1.27911 -6.13973,2.64349 l -1.02329,17.3959 q -0.17055,3.58151 3.83733,5.62809 -4.34898,2.04657 -8.69795,4.09315 0,0 -0.0853,0 0,0 0,0 c -3.83733,-2.38767 -5.79863,-5.20172 -5.62808,-8.5274 l 0.68219,-17.82227 q 0.0853,-2.38768 -2.04657,-4.17843 -1.02329,-0.93801 -2.13186,-1.36438 4.51953,-2.13186 9.12432,-4.26371 0.0853,0 0.0853,0 0.0853,0.0853 0.17055,0.0853 0.17055,0.0853 0.25582,0.0853 0.17055,0.0853 0.3411,0.17055 0.42637,0.25582 0.93801,0.42637 0.51164,0.3411 1.02329,0.68219 1.19383,0.85274 1.9613,1.79076 1.02329,1.19383 1.36438,2.47294 5.54282,-2.47294 11.1709,-4.77534 0,0 0,0 z m 0,0 q 0,0 0,0 0,0 0,0 z m 41.86955,4.86062 q 5.20171,2.21712 7.07774,5.37226 -4.86062,1.53493 -9.72124,3.15514 0.17055,-1.70548 -2.98459,-3.49624 -3.06986,1.02329 -6.225,2.13186 l -2.3024,17.22535 q -0.17055,1.27911 0.3411,2.55822 0.34109,0.93801 1.19383,1.79075 0.85274,1.10857 1.87603,1.62021 -4.6048,1.70548 -9.12432,3.41096 0,0 -0.0853,0 0,0 0,0 -0.0853,-0.0853 -0.17055,-0.0853 -0.0853,-0.0853 -0.25582,-0.17055 -0.17055,-0.0853 -0.3411,-0.17055 -0.51164,-0.3411 -0.93801,-0.68219 -0.51165,-0.3411 -1.02329,-0.76747 -1.19384,-1.10856 -1.87603,-2.3024 -0.76747,-1.53493 -0.59692,-3.06986 l 2.21712,-19.44248 q 0.25583,-2.38767 -1.70548,-4.34897 -1.02328,-0.93802 -2.04657,-1.53494 4.69007,-1.79075 9.46541,-3.49623 0.0853,0 0.0853,0 0.0853,0.0853 0.17055,0.0853 0.17054,0.0853 0.25582,0.17055 0.17055,0.0853 0.34109,0.17055 0.42637,0.25582 0.85274,0.51164 0.51165,0.3411 0.93802,0.6822 1.19384,0.93801 1.9613,1.9613 0.93802,1.27911 1.02329,2.55822 5.79863,-1.9613 11.59727,-3.83733 0,0 0,0 z m 34.53598,10.57398 q 1.36438,2.55822 0.76746,5.28699 l -3.83733,17.48117 q -0.25582,1.02329 0.25582,2.04658 0.3411,0.85274 1.02329,1.70548 0.85274,1.02329 1.79076,1.70548 -4.69007,1.27911 -9.38015,2.64349 -1.87602,-1.27911 -2.89931,-3.32568 -0.85274,-1.53494 -1.19384,-3.41096 -5.88391,1.79075 -11.59727,3.66678 c -4.77534,-2.38767 -7.33356,-5.28699 -7.58938,-8.78323 q 0,0 0,0 -0.17055,-0.85274 0,-1.9613 0,0 0.0853,0 l 2.3024,-14.07021 q 0.34109,-2.21713 4.09315,-4.09316 2.98459,-1.6202 8.01576,-2.72876 5.79863,-1.36439 11.42672,-1.79076 4.94589,2.47295 6.73665,5.62809 z m 140.10522,42.80756 q 0,0 0,0 0,0 0,0 0,0 0,0 z m 0,0 q 4.00788,3.24041 5.03116,6.65137 0.6822,2.72877 -0.42637,5.28699 l -6.90719,15.69042 q -1.44966,3.32569 1.44966,6.5661 -4.69007,0.42637 -9.29487,0.93801 -0.0853,-0.0853 -0.0853,-0.0853 0,0 0,0 -4.00787,-5.28699 -1.9613,-9.89179 l 7.50412,-17.3959 q 0.68219,-1.6202 -1.70548,-4.17842 -3.15514,0.25582 -6.22501,0.51164 l -6.90719,16.11679 q -1.36439,3.32569 1.6202,6.48083 -4.69007,0.51164 -9.38014,1.02328 c 0,0 0,0 0,0 q -0.0853,0 -0.0853,0 c -2.72877,-3.49623 -3.41097,-6.82192 -2.13185,-9.89178 l 6.82192,-16.45789 q 0.93801,-2.21712 -0.3411,-4.6048 -0.59692,-1.19383 -1.36438,-1.9613 4.77534,-0.51164 9.55069,-1.02329 0.0853,0 0.0853,0 c 0,0 0.0853,0.17055 0.0853,0.17055 q 0.0853,0.0853 0.17054,0.17055 0.17055,0.0853 0.3411,0.25582 0.25582,0.3411 0.59692,0.68219 0.34109,0.51165 0.68219,0.93802 0.76747,1.10856 1.19384,2.3024 0.51164,1.44965 0.34109,2.81404 5.71336,-0.59692 11.34145,-1.10856 z M 552.18666,340.40602 q 1.70548,1.19383 2.81404,2.89932 0.76747,1.36438 1.19384,3.06986 0.42637,1.87603 0.34109,3.32569 -2.47294,9.20959 -4.86061,18.50446 -0.51165,1.70548 2.38767,3.92261 3.06986,-0.76747 6.13973,-1.44966 c 0.85274,-3.32569 2.47294,-8.95378 4.60479,-16.62844 q 0.6822,-2.3024 -0.93801,-4.6048 -0.93801,-1.10856 -1.87603,-1.79075 4.9459,-1.10856 9.89179,-2.04658 0,0 0,0 0.0853,0 0.0853,0.0853 0.0853,0 0.0853,0 0.17054,0.17055 0.25582,0.25582 0.17055,0.0853 0.42637,0.25582 0.42637,0.42637 0.85274,0.76747 0.51164,0.51164 0.93801,1.02329 1.02329,1.27911 1.53494,2.55822 0.51164,1.6202 0.0853,3.15514 l -5.88391,19.95412 q -9.12432,1.87603 -18.07809,4.09315 -4.6048,-2.89932 -7.84521,-6.65137 c -2.13185,-2.55822 -3.15514,-4.51953 -2.81404,-5.96918 l 4.09315,-16.79899 q 0.17055,-1.02329 -0.25582,-2.04657 -0.3411,-0.85274 -1.10856,-1.79076 -0.85274,-1.02329 -1.79076,-1.70548 4.86062,-1.19384 9.72124,-2.38767 0,0 0,0 z m -290.44332,0.42637 q 0.0853,0 0.17054,0 0,0 0.0853,0 0.17055,0.0853 0.34109,0.0853 0.17055,0 0.42637,0.0853 0.51165,0.0853 1.02329,0.25582 0.68219,0.17055 1.27911,0.42637 1.53493,0.68219 2.47295,1.53493 1.27911,1.19384 1.62021,2.72877 l 4.00787,19.18666 q 0.51165,2.30239 2.81405,3.5815 1.19383,0.6822 2.21712,0.85274 -3.58151,3.06987 -7.24829,6.22501 0,0 0,0 -0.0853,0 -0.0853,0 -0.0853,0 -0.0853,0 -0.17055,-0.0853 -0.34109,-0.0853 -0.17055,-0.0853 -0.42637,-0.0853 -0.51165,-0.17055 -1.02329,-0.25582 -0.59692,-0.25582 -1.19384,-0.51165 -1.53493,-0.59691 -2.47295,-1.53493 -1.19383,-1.19383 -1.53493,-2.72877 l -4.2637,-19.0161 q -0.51164,-2.38768 -2.89932,-3.58151 -1.19383,-0.59692 -2.30239,-0.85274 3.66678,-3.15514 7.33356,-6.31028 0.0853,0 0.0853,0 z m 379.72522,28.65207 c 0,0 0.0853,0.0853 0.0853,0.0853 0,0 0.17054,0.0853 0.17054,0.0853 q 0.0853,0.0853 0.17055,0.25582 0.17055,0.0853 0.3411,0.25582 0.34109,0.42637 0.68219,0.85274 0.42637,0.51165 0.85274,1.02329 0.85274,1.44966 1.19384,2.72877 0.34109,1.70548 -0.25583,3.15514 l -7.33356,18.07809 q -0.85274,2.21713 0.34109,4.6048 0.59692,1.19384 1.36439,1.9613 -4.69007,0.51165 -9.38014,1.10856 -0.0853,0 -0.0853,0 0,0 0,-0.0853 -0.0853,0 -0.17055,-0.0853 c 0,0 -0.17054,-0.17055 -0.17054,-0.17055 0,0 -0.3411,-0.3411 -0.3411,-0.3411 q -0.3411,-0.42637 -0.68219,-0.76746 -0.3411,-0.51165 -0.68219,-1.10857 -0.93802,-1.27911 -1.19384,-2.64349 -0.42637,-1.62021 0.17055,-3.06987 l 7.16302,-18.24864 q 0.85274,-2.21712 -0.51165,-4.60479 -0.59692,-1.19384 -1.44966,-1.96131 4.86062,-0.59692 9.72124,-1.10856 0,0 0,0 z m -51.93188,-4.69007 q -0.68219,2.13185 -1.02329,4.86062 5.62809,-1.10856 11.25617,-2.13185 -2.47294,-4.9459 -5.11644,-9.97706 -3.58151,2.21712 -5.11644,7.24829 z m -387.91153,-3.75206 q -1.62021,3.75206 -0.17055,8.69795 0.85274,2.98459 2.81404,6.31028 1.27911,2.64349 4.51953,4.51952 3.41096,1.96131 7.84521,1.70548 l -2.13185,-7.58938 c -3.06987,-10.65926 -7.33357,-15.26405 -12.87638,-13.64385 z m 501.41126,40.41989 q -6.05446,0.59692 -7.50412,3.75206 l -6.31027,14.07021 q -0.76747,1.62021 1.53493,4.2637 2.98459,-0.25582 5.96918,-0.51164 l 5.45754,-12.10891 q 1.10856,-2.6435 1.87603,-4.34898 0.68219,-1.44966 0.42637,-2.98459 -0.42637,-1.02329 -1.44966,-2.13185 0,0 0,0 z m -535.52087,-22.51234 4.69007,14.32603 q 0.51165,1.70548 4.00788,1.96131 2.13185,-2.13186 4.17843,-4.34898 -2.72877,-8.78322 -5.54281,-17.65172 -0.51165,-1.70548 -4.09316,-2.04658 -4.2637,4.51952 -3.24041,7.75994 z m 121.51548,-31.29557 2.72877,14.75241 q 0.3411,1.79075 3.83733,2.55822 2.38768,-1.96131 4.77535,-3.83733 -1.53493,-9.12432 -3.15514,-18.24864 -0.25582,-1.79076 -3.83733,-2.55823 c -3.32569,2.6435 -4.77535,5.11645 -4.34898,7.33357 z m 233.30973,-7.93048 q 0,0 0,0 0,0 0,0 0,0 0,0 z m 0,0 c -4.09315,1.19383 -6.39555,2.98459 -6.82192,5.20171 l -2.72877,14.75241 q -0.3411,1.79075 2.72877,3.75205 2.98459,-0.93801 5.96918,-1.79075 1.79076,-9.03905 3.66678,-18.07809 0.3411,-1.79076 -2.81404,-3.83733 z m -174.6412,80.49867 c 1.27911,-0.0853 3.66678,-0.17054 7.07775,-0.0853 q 6.56609,0.25582 12.87637,2.89932 c 5.96918,2.55822 10.06234,6.05445 12.36474,10.40343 q 1.87602,3.58151 2.21712,7.41884 v 0.42637 q 0.25582,3.83733 -1.10856,7.24829 -3.41096,9.72124 -9.03905,14.75241 -2.47294,2.04657 -4.86062,4.09315 2.38768,0.51164 4.77535,0.3411 0.17055,0 0.34109,0 2.47295,-0.25583 7.16302,-2.9846 -1.44966,2.55823 -3.9226,5.20172 c -3.15514,3.06986 -6.48083,4.86062 -10.06234,5.20172 q -0.59692,0.0853 -1.10856,0.0853 c -3.49624,0.0853 -8.01576,-0.68219 -13.64384,-2.3024 -5.54282,-1.53493 -10.23289,-3.49623 -13.98494,-5.88391 -4.2637,-2.64349 -7.41884,-5.79863 -9.55069,-9.46541 q -1.96131,-3.66679 -2.55823,-6.99247 -0.0853,-0.76747 -0.17054,-1.62021 -0.17055,-4.2637 2.04657,-9.12432 c 1.36439,-2.89932 3.75206,-6.13973 7.33357,-9.72124 1.27911,-1.27911 3.66678,-3.24041 6.9072,-5.71336 3.32568,-2.38767 5.37226,-3.75206 6.13973,-4.00788 q 0.25582,-0.0853 0.76746,-0.17055 0,0 0,0 z m 0,0 q 0,0 0,0 0,0 0,0 z m 135.15933,3.92261 q 0,0.0853 0.0853,0.0853 0,0 0.0853,0.0853 0.0853,0.0853 0.17054,0.17055 c 0,0 0.3411,0.17054 0.3411,0.17054 q 0.42637,0.25583 0.76747,0.59692 0.51164,0.42637 0.93801,0.85274 1.02329,1.10856 1.44966,2.3024 0.68219,1.53493 0.42637,3.06987 l -0.76747,4.69007 q 2.04658,0.34109 4.17843,0.68219 -1.36438,1.79075 -2.64349,3.58151 -1.02329,-0.17055 -2.13185,-0.3411 l -3.58151,22.08597 q -0.3411,2.3024 1.02328,4.2637 0.6822,1.02329 1.44966,1.53494 -3.75205,1.70548 -7.41884,3.49623 0,0 -0.0853,0 0,0 -0.0853,-0.0853 0,0 -0.0853,0 c 0,0 -0.17055,-0.17055 -0.17055,-0.17055 0,0 -0.25582,-0.25582 -0.25582,-0.25582 q -0.3411,-0.25582 -0.76747,-0.59692 -0.34109,-0.3411 -0.68219,-0.76747 -1.02329,-1.10856 -1.44966,-2.30239 -0.51164,-1.44966 -0.34109,-3.06987 l 3.58151,-25.49693 q -1.79076,-0.25582 -3.66679,-0.42637 1.27911,-1.87603 2.47295,-3.66679 0.85274,0.0853 1.70548,0.25583 0.42637,-2.6435 0,-3.83733 -0.3411,-0.93802 -1.02329,-1.87603 -0.76746,-0.93802 -1.6202,-1.44966 4.00788,-1.79076 8.10103,-3.58151 0,0 0,0 z m -142.83399,5.37226 q -2.89932,1.36439 -4.86062,3.75206 -1.9613,2.3024 -2.38767,5.03117 -0.51165,2.81404 -0.17055,5.37226 0.25582,1.79076 0.93801,3.41096 1.53494,3.75206 5.45754,7.67466 c 5.45754,5.54282 13.4733,9.29487 23.962,11.512 q 2.6435,-2.13185 5.37226,-4.17843 4.43425,-4.17843 5.45754,-9.29487 0.42637,-2.72877 0.25582,-5.20171 -0.34109,-4.77535 -3.24041,-8.78323 c -3.58151,-5.03117 -9.63596,-8.78322 -18.24864,-11.00035 q -1.19384,-0.34109 -3.49623,-0.34109 -1.02329,0 -1.96131,0.0853 -3.49623,0.42637 -7.07774,1.9613 z m 102.84047,12.79111 q -0.17055,0.0853 -0.25582,0.17054 -8.10103,4.69008 -15.94624,9.63597 0.51164,1.44966 1.19383,2.81404 1.10857,1.87603 2.55822,3.24041 3.24042,2.81405 8.27158,3.06987 1.53494,0.0853 3.32569,-0.0853 -4.94589,2.98459 -9.72124,6.05445 -0.59692,-0.0853 -1.27911,-0.17055 -0.76746,-0.17054 -1.6202,-0.42637 -2.21713,-0.68219 -4.00788,-1.87603 c -3.49624,-2.30239 -5.71336,-5.96918 -6.65138,-11.00034 q -0.42637,-2.3024 -0.42637,-4.69008 0.0853,-2.81404 0.76747,-5.71336 c 1.79075,-7.24829 6.5661,-11.68254 14.58186,-13.04692 q 4.69007,5.96918 9.20959,12.02364 z m 17.65172,-9.55069 q 0,0 0,0 2.9846,0.34109 5.79864,2.47294 3.06986,2.38768 3.9226,5.37227 -3.66678,1.79075 -7.33356,3.66678 0,-0.17055 -1.27911,-1.9613 -0.93802,-1.19384 -1.79076,-1.96131 -0.51164,-0.42637 -0.93801,-0.68219 -1.02329,-0.76746 -2.98459,-1.10856 -0.0853,0 -0.17055,0 -0.51165,-0.0853 -0.85274,0.0853 0,0 -0.0853,0.0853 -1.02328,0.59692 -1.19383,1.70548 v 0.0853 q 0,0.42637 0.17055,0.93802 0.0853,0.34109 0.34109,0.76746 c 0.59692,0.85274 2.21713,2.21713 5.11644,4.17843 q 0.93802,0.59692 2.13185,1.36438 c 4.09316,2.6435 6.13973,5.11645 6.31028,7.33357 q 0.0853,1.9613 -0.0853,3.49623 -0.0853,0.59692 -0.25582,1.27912 -0.6822,2.55822 -2.55822,3.9226 c -0.17055,0.0853 -2.81405,1.44966 -7.75994,4.2637 0,0 -0.0853,0.0853 -0.0853,0.0853 q -1.36439,0.68219 -2.9846,0.51164 -1.9613,-0.17055 -4.34897,-1.79075 c -2.81404,-1.87603 -4.2637,-4.00788 -4.34898,-6.39556 q 3.32569,-1.87603 6.73665,-3.75205 0.25582,1.02328 0.93802,2.13185 1.87602,2.98459 4.60479,3.9226 0.0853,0 0.0853,0 0.51164,0.17055 0.85274,0.25582 1.27911,0.0853 2.04657,-0.85274 0.0853,-0.17054 0.25583,-0.59691 0,-0.17055 0.0853,-0.25583 v -0.34109 q 0.0853,-0.25582 0.17055,-0.51165 0,-0.34109 -0.0853,-0.68219 -0.25582,-2.55822 -2.64349,-4.69007 -1.10856,-1.02329 -2.6435,-1.9613 c -3.32568,-1.87603 -5.45753,-3.06987 -6.39555,-3.83733 -2.21712,-1.79076 -3.32568,-3.75206 -3.15514,-5.88391 v -0.42637 q 0.42637,-2.98459 2.9846,-4.77535 0.25582,-0.17054 0.51164,-0.34109 4.94589,-2.6435 9.97706,-5.11644 0.42637,0 0.93801,0 0,0 0,0 z m -70.09524,-1.62021 q 0,0 0,0 0,0 0,0 0,0 0,0 z m 0,0 q 1.6202,0.68219 2.89931,2.04658 1.02329,1.02328 1.70548,2.55822 0.76747,1.70548 1.02329,3.06986 l 0.68219,19.3572 q 0.0853,1.70549 2.81405,3.06987 2.21712,-1.62021 4.51952,-3.15514 l -0.3411,-17.3959 q -0.0853,-1.36438 -0.68219,-2.47295 -0.42637,-0.85274 -1.19383,-1.6202 -0.93802,-0.85274 -1.87603,-1.27911 3.66678,-2.38768 7.33356,-4.69007 0,0 0,0 0.0853,0 0.0853,0 0.0853,0 0.0853,0.0853 0.17055,0 0.25582,0.0853 0.17055,0.0853 0.3411,0.17055 0.51164,0.25582 0.85274,0.51165 0.59692,0.34109 1.02329,0.68219 1.19383,0.93801 1.87603,2.04657 0.85274,1.36439 0.85274,2.98459 0,1.79076 0,19.52776 0,1.27911 0.51164,2.38767 0.42637,0.93801 1.19384,1.70548 0.76746,0.85274 1.6202,1.27911 -3.41096,2.3024 -6.82192,4.6048 -0.0853,0 -0.0853,0 -0.0853,0 -0.17055,-0.0853 -0.0853,0 -0.17055,0 -0.0853,-0.0853 -0.25582,-0.17055 -0.3411,-0.17054 -0.68219,-0.42637 -0.42637,-0.25582 -0.85274,-0.51164 -0.93802,-0.76747 -1.62021,-1.70548 -0.85274,-1.10856 -1.10856,-2.38767 -4.17843,2.81404 -8.27158,5.79863 -4.09315,-1.27911 -6.13973,-3.9226 -1.62021,-2.04658 -1.79076,-4.86062 l -0.93801,-17.90755 q -0.0853,-1.02329 -0.68219,-1.87603 -0.42637,-0.76746 -1.27911,-1.36438 -0.93802,-0.76747 -1.87603,-1.19384 3.58151,-2.47294 7.16302,-4.94589 z m 35.47399,12.87638 q -0.0853,2.3024 0.25582,4.94589 4.17843,-2.64349 8.44213,-5.20172 -3.06986,-4.09315 -6.31028,-8.10103 -2.3024,3.15514 -2.38767,8.35686 z"
     id="path136"
     style="display:none;stroke-width:0.85274" /><g
     aria-label="E"
     id="text1133"
     style="font-size:42.6667px;font-family:'Enchanted Land';-inkscape-font-specification:'Enchanted Land, Normal';text-align:center;text-anchor:middle;fill:#ffffff;fill-opacity:0.99536;stroke:#000000;stroke-width:6;paint-order:markers stroke fill"><path
       d="m 25.125,26.906253 0.04167,0.520833 Q 25.25,28.32292 25.25,30.031255 v 0.729167 q -0.125,1.895835 -1.812501,3.145836 1.145834,-0.166667 2.395835,-0.166667 3.770836,0 8.395839,1.625001 -4.229169,3.60417 -4.375003,3.60417 -4.208336,-1.604168 -9.291673,-1.604168 -2.729169,0 -5.687505,0.458333 2.166669,-2.270835 6.041672,-3.583336 0.166666,-0.645833 0.166666,-1.250001 0,-0.333333 -0.04167,-0.645833 L 20.104163,23.90625 q -0.08333,-0.5625 -0.08333,-1.187501 0,-0.916667 0.1875,-1.979168 0.270833,-1.541667 0.958334,-2.770835 0.833334,-1.541668 2.270835,-2.500002 l -2.625002,-0.375 q -1.312501,-0.229167 -3.687503,-1.541668 -2.354168,-1.312501 -3.687503,-4.5208367 0.125,0.2916669 1.770835,1.1250007 1.645835,0.812501 3.937503,1.104168 0.895834,0.125 5.22917,0.291667 4.35417,0.145833 6.437505,1.145834 2.104168,1 3.750003,5.125004 Q 33.041673,16.447911 25.5,15.760411 q -0.895834,1.625001 -0.895834,4.395837 0,0.5 0.02083,1.020834 l 0.1875,2.187501 0.04167,0.541667 0.854168,0.166667 q 1.708334,0.375 2.541668,0.375 0.208334,0 0.375001,-0.02083 1.041667,-0.145833 1.416667,-0.958334 0.208334,-0.416667 0.208334,-0.791667 0.875,1.062501 0.875,2.020835 0,0.729167 -0.520833,1.395834 -1.000001,1.250001 -2.541669,1.250001 -0.354167,0 -0.75,-0.0625 -1.750002,-0.270834 -2.187502,-0.375 z"
       id="path3616" /></g></svg>
